<?xml version="1.0" standalone="no"?><!DOCTYPE svg PUBLIC "-//W3C//DTD SVG 1.1//EN" "http://www.w3.org/Graphics/SVG/1.1/DTD/svg11.dtd"><svg t="1749814106142" class="icon" viewBox="0 0 1024 1024" version="1.1" xmlns="http://www.w3.org/2000/svg" p-id="5984" xmlns:xlink="http://www.w3.org/1999/xlink" width="200" height="200"><path d="M959.146667 440.32c-17.066667-13.653333-30.72-27.306667-34.133334-37.546667-3.413333-13.653333 3.413333-34.133333 10.24-54.613333 10.24-30.72 20.48-58.026667 6.826667-85.333333-13.653333-23.893333-44.373333-30.72-75.093333-37.546667-20.48-3.413333-40.96-6.826667-51.2-17.066667s-13.653333-30.72-17.066667-51.2c-6.826667-30.72-13.653333-61.44-37.546667-75.093333-20.48-13.653333-54.613333-3.413333-85.333333 6.826667-20.48 6.826667-40.96 13.653333-54.613333 10.24-10.24-3.413333-27.306667-20.48-37.546667-34.133334-20.48-23.893333-40.96-47.786667-71.68-47.786666s-51.2 23.893333-71.68 47.786666c-13.653333 17.066667-27.306667 30.72-37.546667 34.133334-10.24 3.413333-34.133333-3.413333-54.613333-10.24-30.72-10.24-61.44-17.066667-85.333333-6.826667-23.893333 17.066667-30.72 47.786667-34.133334 78.506667-6.826667 20.48-10.24 40.96-17.066666 51.2-10.24 6.826667-30.72 10.24-51.2 17.066666-30.72 3.413333-61.44 10.24-78.506667 34.133334-13.653333 27.306667-3.413333 54.613333 6.826667 85.333333 6.826667 20.48 13.653333 40.96 10.24 54.613333-3.413333 10.24-20.48 27.306667-34.133334 37.546667-23.893333 20.48-47.786667 40.96-47.786666 71.68s23.893333 51.2 47.786666 71.68c17.066667 13.653333 30.72 27.306667 34.133334 37.546667 3.413333 13.653333-3.413333 34.133333-10.24 54.613333-10.24 30.72-20.48 58.026667-6.826667 85.333333 13.653333 23.893333 44.373333 30.72 75.093333 37.546667 20.48 3.413333 40.96 6.826667 51.2 17.066667s13.653333 30.72 17.066667 51.2c6.826667 30.72 13.653333 61.44 37.546667 75.093333 20.48 13.653333 54.613333 3.413333 85.333333-6.826667 20.48-6.826667 40.96-13.653333 54.613333-10.24 10.24 3.413333 27.306667 20.48 37.546667 34.133334 20.48 23.893333 40.96 47.786667 71.68 47.786666s51.2-23.893333 71.68-47.786666c13.653333-17.066667 27.306667-30.72 37.546667-34.133334 10.24-3.413333 34.133333 3.413333 54.613333 10.24 30.72 10.24 61.44 17.066667 85.333333 6.826667 23.893333-13.653333 30.72-44.373333 37.546667-75.093333 3.413333-20.48 6.826667-40.96 17.066667-51.2 10.24-10.24 30.72-13.653333 51.2-17.066667 30.72-6.826667 61.44-13.653333 75.093333-37.546667 13.653333-23.893333 3.413333-54.613333-6.826667-85.333333-6.826667-20.48-13.653333-40.96-10.24-54.613333 3.413333-10.24 20.48-27.306667 34.133334-37.546667 23.893333-20.48 47.786667-40.96 47.786666-71.68 0-30.72-23.893333-51.2-47.786666-71.68zM392.533333 614.4c0 6.826667-3.413333 13.653333-13.653333 17.066667H375.466667c-6.826667 0-10.24-3.413333-13.653334-6.826667l-105.813333-157.013333V614.4c0 10.24-6.826667 17.066667-17.066667 17.066667s-17.066667-6.826667-17.066666-17.066667v-204.8c0-6.826667 3.413333-13.653333 13.653333-17.066667 6.826667-3.413333 13.653333 0 20.48 6.826667l105.813333 157.013333V409.6c0-10.24 6.826667-17.066667 17.066667-17.066667s17.066667 6.826667 17.066667 17.066667v204.8z m153.6-119.466667c10.24 0 17.066667 6.826667 17.066667 17.066667s-6.826667 17.066667-17.066667 17.066667h-85.333333v68.266666H546.133333c10.24 0 17.066667 6.826667 17.066667 17.066667s-6.826667 17.066667-17.066667 17.066667h-102.4c-10.24 0-17.066667-6.826667-17.066666-17.066667v-204.8c0-10.24 6.826667-17.066667 17.066666-17.066667h102.4c10.24 0 17.066667 6.826667 17.066667 17.066667s-6.826667 17.066667-17.066667 17.066667h-85.333333v68.266666H546.133333z m256 122.88c0 6.826667-6.826667 13.653333-13.653333 13.653334H785.066667c-6.826667 0-13.653333-3.413333-17.066667-10.24L716.8 488.106667l-51.2 129.706666c-3.413333 6.826667-10.24 10.24-17.066667 10.24s-13.653333-6.826667-13.653333-13.653333l-34.133333-204.8c0-10.24 3.413333-17.066667 13.653333-20.48 10.24 0 17.066667 3.413333 20.48 13.653333l23.893333 143.36 44.373334-112.64c6.826667-13.653333 27.306667-13.653333 30.72 0l44.373333 112.64 23.893333-143.36c0-10.24 10.24-17.066667 20.48-13.653333 10.24 0 17.066667 10.24 13.653334 20.48l-34.133334 208.213333z" fill="#68d96f" p-id="5985" data-spm-anchor-id="a313x.search_index.0.i1.5b503a81mkh3dn" class=""></path></svg>