<?xml version="1.0" standalone="no"?><!DOCTYPE svg PUBLIC "-//W3C//DTD SVG 1.1//EN" "http://www.w3.org/Graphics/SVG/1.1/DTD/svg11.dtd"><svg t="1749693601782" class="icon" viewBox="0 0 1024 1024" version="1.1" xmlns="http://www.w3.org/2000/svg" p-id="5415" xmlns:xlink="http://www.w3.org/1999/xlink" width="200" height="200"><path d="M512 0c282.763636 0 512 229.236364 512 512S794.763636 1024 512 1024 0 794.763636 0 512 229.236364 0 512 0z" fill="#68d96f" p-id="5416" data-spm-anchor-id="a313x.search_index.0.i3.34703a81soX0vU" class="selected"></path><path d="M427.938909 593.419636c38.132364 32 56.738909 67.921455 42.728727 84.596364-29.998545 35.758545-86.981818 40.738909-122.728727 10.740364-35.746909-29.998545-40.727273-86.981818-10.740364-122.728728 13.998545-16.686545 52.596364-4.608 90.740364 27.392zM761.6 507.229091a48.174545 48.174545 0 0 1-23.552 71.552l-245.643636 91.066182c1.664-15.476364-5.620364-35.025455-19.432728-52.154182l204.416-128.802909a61.486545 61.486545 0 0 1 84.212364 18.338909zM475.357091 252.706909a61.090909 61.090909 0 0 1 29.242182 81.303273l-102.411637 217.495273c-18.688-11.613091-38.981818-16.465455-54.132363-12.928l57.204363-251.764364a49.966545 49.966545 0 0 1 69.620364-34.327273z m180.654545 90.368l2.117819 1.826909a78.196364 78.196364 0 0 1-8.529455 123.508364L462.126545 593.559273l-38.132363-32 109.079273-195.490909a81.338182 81.338182 0 0 1 125.056-21.166546z" fill="#FFFFFF" p-id="5417"></path></svg>